<svg xmlns="http://www.w3.org/2000/svg" viewBox="0 0 64 64" shape-rendering="crispEdges">
  <rect width="64" height="64" fill="#ff4fb5"/>
  <g fill="#ffffff">
    <!-- B -->
    <rect x="10" y="18" width="16" height="4"/>
    <rect x="10" y="22" width="4"  height="4"/>
    <rect x="26" y="22" width="4"  height="4"/>
    <rect x="10" y="26" width="4"  height="4"/>
    <rect x="26" y="26" width="4"  height="4"/>
    <rect x="10" y="30" width="16" height="4"/>
    <rect x="10" y="34" width="4"  height="4"/>
    <rect x="26" y="34" width="4"  height="4"/>
    <rect x="10" y="38" width="4"  height="4"/>
    <rect x="26" y="38" width="4"  height="4"/>
    <rect x="10" y="42" width="16" height="4"/>
    <!-- T -->
    <rect x="34" y="18" width="20" height="4"/>
    <rect x="42" y="22" width="4"  height="4"/>
    <rect x="42" y="26" width="4"  height="4"/>
    <rect x="42" y="30" width="4"  height="4"/>
    <rect x="42" y="34" width="4"  height="4"/>
    <rect x="42" y="38" width="4"  height="4"/>
    <rect x="42" y="42" width="4"  height="4"/>
  </g>
</svg>
